<svg width="100%" height="100%" viewBox="0 0 128 114" style="fill-rule:evenodd;clip-rule:evenodd;stroke-linejoin:round;stroke-miterlimit:2;">
    <g>
        <path d="M 7.861522e-4,89.768893 V 0.0030429 H 29.922807 V 44.885968 h 29.922021 v 44.882925 z" style="fill:var(--color-a);stroke-width:0.467531"/>
        <path d="M 68.162586,-0.00304314 V 89.762807 H 98.084607 V 44.879882 H 128.00663 V -0.00304314 Z" style="fill:var(--color-a);stroke-width:0.467531"/>
    </g>
    <g>
        <path d="M 1.5996829,109.74505 H 5.67325e-4 V 95.613622 H 1.7255846 v 5.040588 c 0.727614,-0.917963 1.6563437,-1.378592 2.7878242,-1.378592 0.6246035,0 1.2181402,0.128318 1.7773401,0.381664 0.5575649,0.253346 1.0186596,0.610328 1.3783788,1.069318 0.3613543,0.46063 0.6442245,1.01503 0.8486104,1.6632 0.204386,0.64981 0.3057614,1.3424 0.3057614,2.08269 0,1.75368 -0.430028,3.10925 -1.2933542,4.0667 -0.8616911,0.95745 -1.8967015,1.43617 -3.1033961,1.43617 -1.2001542,0 -2.1435997,-0.5034 -2.8270663,-1.51349 z m -0.017986,-5.19524 c 0,1.22725 0.1651439,2.11396 0.4970666,2.66013 0.5428491,0.89329 1.2786385,1.33912 2.204098,1.33912 0.7537753,0 1.4045402,-0.32902 1.9539296,-0.98706 0.5493894,-0.65969 0.8240841,-1.64017 0.8240841,-2.94474 0,-1.33746 -0.2632491,-2.32453 -0.7897473,-2.95953 -0.5264982,-0.63666 -1.1641823,-0.95416 -1.9114173,-0.95416 -0.7537753,0 -1.4045402,0.32902 -1.9539296,0.98706 -0.5493894,0.65968 -0.8240841,1.6122 -0.8240841,2.85918 z" style="fill:var(--color-a);fill-rule:nonzero;stroke-width:1.64009"/>
        <path d="M 10.703721,109.74505 V 99.507578 h 1.551698 v 1.551332 c 0.395691,-0.72549 0.761951,-1.204216 1.097144,-1.436175 0.335192,-0.230314 0.704722,-0.347117 1.106954,-0.347117 0.580456,0 1.172358,0.187542 1.772435,0.559335 l -0.595172,1.610557 c -0.420218,-0.2517 -0.84207,-0.37673 -1.263923,-0.37673 -0.37607,0 -0.714533,0.11516 -1.015389,0.34218 -0.300856,0.22867 -0.515053,0.54453 -0.64259,0.94922 -0.191305,0.61692 -0.28614,1.29305 -0.28614,2.02512 v 5.35975 z" style="fill:var(--color-a);fill-rule:nonzero;stroke-width:1.64009"/>
        <path d="m 24.817018,109.74505 v -1.50363 c -0.793017,1.15651 -1.868905,1.73394 -3.229298,1.73394 -0.600077,0 -1.160912,-0.11516 -1.680869,-0.34712 -0.519958,-0.23031 -0.907474,-0.52149 -1.159278,-0.8719 -0.251803,-0.35041 -0.430028,-0.77813 -0.531403,-1.28647 -0.07031,-0.34054 -0.106281,-0.88013 -0.106281,-1.61878 v -6.343512 h 1.725018 v 5.677242 c 0,0.90645 0.03434,1.51679 0.104645,1.83265 0.109551,0.45569 0.338463,0.81432 0.690007,1.07425 0.351544,0.25992 0.786477,0.38989 1.303165,0.38989 0.518323,0 1.002309,-0.13326 1.456863,-0.39976 0.452919,-0.26651 0.773396,-0.63008 0.963066,-1.08906 0.188036,-0.45898 0.281235,-1.12689 0.281235,-2.00044 v -5.484772 h 1.725018 v 10.237472 z" style="fill:var(--color-a);fill-rule:nonzero;stroke-width:1.64009"/>
        <path d="M 28.239515,109.74505 V 99.507578 h 1.551698 v 1.455912 c 0.747235,-1.125247 1.826393,-1.687872 3.237474,-1.687872 0.613158,0 1.177263,0.111867 1.69068,0.333956 0.515053,0.220444 0.899298,0.511626 1.154372,0.871906 0.256709,0.36028 0.434933,0.78636 0.537944,1.28153 0.06377,0.3208 0.09484,0.88342 0.09484,1.68788 v 6.29416 h -1.725017 v -6.22671 c 0,-0.7074 -0.06704,-1.23548 -0.201116,-1.58588 -0.134077,-0.35041 -0.371165,-0.63008 -0.712898,-0.839 -0.341734,-0.20893 -0.74233,-0.31257 -1.20179,-0.31257 -0.735789,0 -1.368568,0.2336 -1.903242,0.70245 -0.533038,0.46886 -0.799557,1.35886 -0.799557,2.67 v 5.59171 z" style="fill:var(--color-a);fill-rule:nonzero;stroke-width:1.64009"/>
        <path d="m 38.38666,104.62549 c 0,-1.89516 0.523228,-3.29843 1.571319,-4.21146 0.874772,-0.758393 1.940849,-1.138412 3.199866,-1.138412 1.398,0 2.540926,0.462274 3.428779,1.383532 0.887852,0.9229 1.332596,2.19621 1.332596,3.82322 0,1.31608 -0.19621,2.35249 -0.590266,3.10759 -0.392421,0.7551 -0.963067,1.34241 -1.713572,1.76026 -0.750505,0.41621 -1.569684,0.62514 -2.457537,0.62514 -1.424161,0 -2.575262,-0.45898 -3.45494,-1.3786 -0.878042,-0.91796 -1.316245,-2.24227 -1.316245,-3.97127 z m 1.772435,0 c 0,1.31115 0.284505,2.29327 0.85188,2.94473 0.569011,0.65311 1.283544,0.97884 2.14687,0.97884 0.855151,0 1.568049,-0.32738 2.135425,-0.98213 0.56901,-0.65639 0.853515,-1.65497 0.853515,-2.99902 0,-1.26508 -0.28614,-2.22418 -0.858421,-2.87728 -0.570645,-0.65146 -1.281908,-0.97719 -2.130519,-0.97719 -0.863326,0 -1.577859,0.32408 -2.14687,0.97225 -0.567375,0.64982 -0.85188,1.6303 -0.85188,2.9398 z" style="fill:var(--color-a);fill-rule:nonzero;stroke-width:1.64009"/>
        <path d="M 49.799208,113.66861 V 99.507578 h 1.571319 v 1.330882 c 0.371165,-0.52149 0.789748,-0.911381 1.255748,-1.171307 0.466,-0.259927 1.03174,-0.391535 1.695585,-0.391535 0.868232,0 1.635088,0.225379 2.298933,0.676137 0.663846,0.449115 1.165818,1.084125 1.504281,1.903385 0.338463,0.81926 0.508512,1.71748 0.508512,2.69467 0,1.04629 -0.188035,1.99058 -0.560835,2.82793 -0.374435,0.83901 -0.917284,1.48224 -1.628547,1.92806 -0.712898,0.44747 -1.461768,0.66956 -2.24661,0.66956 -0.575551,0 -1.090604,-0.12174 -1.548428,-0.36521 -0.45619,-0.24512 -0.830625,-0.55276 -1.12494,-0.9262 v 4.98466 z m 1.561509,-8.9839 c 0,1.31608 0.264884,2.28998 0.796287,2.92006 0.529769,0.63007 1.170723,0.94429 1.924498,0.94429 0.766857,0 1.422527,-0.32573 1.968646,-0.97884 0.546119,-0.65146 0.819179,-1.66155 0.819179,-3.03028 0,-1.30456 -0.26652,-2.28175 -0.799558,-2.93157 -0.533039,-0.64817 -1.170723,-0.97225 -1.911417,-0.97225 -0.734155,0 -1.38492,0.34547 -1.949025,1.03641 -0.56574,0.6893 -0.84861,1.69446 -0.84861,3.01218 z" style="fill:var(--color-a);fill-rule:nonzero;stroke-width:1.64009"/>
        <path d="m 68.052745,106.44826 1.782245,0.22209 c -0.281235,1.04629 -0.802828,1.85897 -1.561508,2.43804 -0.760316,0.57908 -1.731558,0.86697 -2.913726,0.86697 -1.48793,0 -2.668463,-0.46063 -3.539965,-1.38189 -0.871501,-0.9229 -1.30807,-2.21595 -1.30807,-3.88079 0,-1.72242 0.441474,-3.05824 1.322786,-4.00911 0.881312,-0.950872 2.024239,-1.427952 3.430414,-1.427952 1.360393,0 2.470617,0.467209 3.333943,1.398332 0.861691,0.93113 1.293354,2.24228 1.293354,3.93344 0,0.102 -0.0033,0.25664 -0.0098,0.46228 h -7.588441 c 0.06377,1.12525 0.380975,1.98563 0.948351,2.58281 0.56901,0.59881 1.278638,0.89658 2.127248,0.89658 0.632779,0 1.172358,-0.16616 1.618737,-0.50176 0.448014,-0.33396 0.802828,-0.86697 1.064442,-1.59904 z m -5.662308,-2.8049 h 5.680294 c -0.07521,-0.86203 -0.292681,-1.50691 -0.650765,-1.93793 -0.549389,-0.66791 -1.260652,-1.00186 -2.137059,-1.00186 -0.791383,0 -1.456863,0.2665 -1.996442,0.79952 -0.539579,0.53301 -0.8388,1.24698 -0.896028,2.14027 z" style="fill:var(--color-a);fill-rule:nonzero;stroke-width:1.64009"/>
        <path d="M 71.770845,109.74505 V 99.507578 h 1.551698 v 1.551332 c 0.397327,-0.72549 0.761951,-1.204216 1.097144,-1.436175 0.335193,-0.230314 0.704723,-0.347117 1.106954,-0.347117 0.580456,0 1.172358,0.187542 1.772435,0.559335 l -0.593537,1.610557 c -0.421852,-0.2517 -0.843705,-0.37673 -1.265557,-0.37673 -0.376071,0 -0.714534,0.11516 -1.01539,0.34218 -0.299221,0.22867 -0.513417,0.54453 -0.640954,0.94922 -0.19294,0.61692 -0.287775,1.29305 -0.287775,2.02512 v 5.35975 z" style="fill:var(--color-a);fill-rule:nonzero;stroke-width:1.64009"/>
        <path d="M 79.178485,109.74505 V 99.507578 h 1.551698 v 1.551332 c 0.397326,-0.72549 0.761951,-1.204216 1.097144,-1.436175 0.335193,-0.230314 0.704722,-0.347117 1.106954,-0.347117 0.582091,0 1.172358,0.187542 1.772435,0.559335 l -0.593537,1.610557 c -0.421853,-0.2517 -0.843705,-0.37673 -1.265558,-0.37673 -0.37607,0 -0.714533,0.11516 -1.015389,0.34218 -0.299221,0.22867 -0.513418,0.54453 -0.640954,0.94922 -0.192941,0.61692 -0.287776,1.29305 -0.287776,2.02512 v 5.35975 z" style="fill:var(--color-a);fill-rule:nonzero;stroke-width:1.64009" />
        <path d="m 87.486486,113.68671 -0.191305,-1.62865 c 0.37607,0.10199 0.706358,0.15464 0.985958,0.15464 0.384246,0 0.690007,-0.0642 0.920554,-0.19248 0.230548,-0.12996 0.418583,-0.30928 0.565741,-0.54124 0.107915,-0.17273 0.28287,-0.60375 0.526498,-1.2914 0.03107,-0.0954 0.08339,-0.2369 0.153698,-0.42444 L 86.585553,99.507578 h 1.859095 l 2.117438,5.928942 c 0.274695,0.75182 0.519958,1.54146 0.737425,2.3706 0.197845,-0.79623 0.434933,-1.57437 0.709627,-2.33276 l 2.174667,-5.966782 h 1.725017 l -3.871887,10.410202 c -0.415312,1.12525 -0.737424,1.90009 -0.966337,2.32288 -0.307396,0.5725 -0.65894,0.992 -1.054631,1.25851 -0.395691,0.2665 -0.868232,0.39976 -1.417621,0.39976 -0.331923,0 -0.703088,-0.0707 -1.11186,-0.21222 z" style="fill:var(--color-a);fill-rule:nonzero;stroke-width:1.64009" />
        <rect x="97.786446" y="107.76927" width="1.96374" height="1.9757671" style="fill:var(--color-a);fill-rule:nonzero;stroke-width:1.64009" />
        <path d="M 101.63081,109.74505 V 99.507578 h 1.55333 v 1.455912 c 0.74724,-1.125247 1.8264,-1.687872 3.23748,-1.687872 0.61315,0 1.17726,0.111867 1.69068,0.333956 0.51505,0.220444 0.89929,0.511626 1.15437,0.871906 0.25671,0.36028 0.43493,0.78636 0.53631,1.28153 0.0638,0.3208 0.0965,0.88342 0.0965,1.68788 v 6.29416 h -1.72502 v -6.22671 c 0,-0.7074 -0.067,-1.23548 -0.20112,-1.58588 -0.13407,-0.35041 -0.37116,-0.63008 -0.71289,-0.839 -0.34174,-0.20893 -0.74233,-0.31257 -1.20343,-0.31257 -0.73415,0 -1.36857,0.2336 -1.90161,0.70245 -0.53303,0.46886 -0.79955,1.35886 -0.79955,2.67 v 5.59171 z" style="fill:var(--color-a);fill-rule:nonzero;stroke-width:1.64009" />
        <path d="m 119.31902,106.44826 1.78224,0.22209 c -0.28123,1.04629 -0.80119,1.85897 -1.56151,2.43804 -0.76031,0.57908 -1.73155,0.86697 -2.91372,0.86697 -1.48793,0 -2.66683,-0.46063 -3.53997,-1.38189 -0.8715,-0.9229 -1.30643,-2.21595 -1.30643,-3.88079 0,-1.72242 0.43984,-3.05824 1.32115,-4.00911 0.88131,-0.950872 2.02587,-1.427952 3.43041,-1.427952 1.36039,0 2.47225,0.467209 3.33395,1.398332 0.86169,0.93113 1.29335,2.24228 1.29335,3.93344 0,0.102 -0.003,0.25664 -0.01,0.46228 h -7.58844 c 0.0654,1.12525 0.38097,1.98563 0.94998,2.58281 0.56738,0.59881 1.27701,0.89658 2.12562,0.89658 0.63278,0 1.17236,-0.16616 1.62037,-0.50176 0.44638,-0.33396 0.80119,-0.86697 1.06281,-1.59904 z m -5.66231,-2.8049 h 5.68193 c -0.0768,-0.86203 -0.29432,-1.50691 -0.6524,-1.93793 -0.54939,-0.66791 -1.26066,-1.00186 -2.13543,-1.00186 -0.79301,0 -1.4585,0.2665 -1.99807,0.79952 -0.53958,0.53301 -0.8388,1.24698 -0.89603,2.14027 z" style="fill:var(--color-a);fill-rule:nonzero;stroke-width:1.64009"/>
        <path d="m 127.752,108.19207 0.24854,1.53323 c -0.48562,0.10365 -0.91892,0.15464 -1.30317,0.15464 -0.62624,0 -1.11022,-0.10035 -1.45523,-0.2994 -0.345,-0.19906 -0.58863,-0.46063 -0.72924,-0.78472 -0.14062,-0.32573 -0.21093,-1.00845 -0.21093,-2.04979 v -5.88947 h -1.26392 v -1.348982 h 1.26392 v -2.535102 l 1.71521,-1.041349 v 3.576451 h 1.73482 v 1.348982 h -1.73482 v 5.98653 c 0,0.49517 0.0311,0.81268 0.0916,0.95416 0.0605,0.14147 0.16024,0.25334 0.29759,0.33724 0.13571,0.0839 0.33355,0.12503 0.58863,0.12503 0.1913,0 0.44311,-0.0214 0.75704,-0.0674 z" style="fill:var(--color-a);fill-rule:nonzero;stroke-width:1.64009"/>
    </g>
</svg>
